#!OML:ASF G:\ViconDB\ViconDB\414\test\team2\shane.ASF
:FULLY-SPECIFIED
:DEGREES
126
root 2.28221 16.686 -18.6673 -7.23366 12.9799 -6.66572
lowerback 9.04371 -2.9217 3.86015
upperback 5.01638 -3.52974 3.18209
thorax 0.117994 -1.72217 1.43629
lowerneck -11.98 -6.26207 -10.737
upperneck 30.9941 -4.55983 -5.33507
head 12.5332 -3.92282 -0.861916
rclavicle -7.40473e-015 5.56597e-015
rhumerus -27.4666 -10.4564 -42.9602
rradius 125.348
rwrist 152.7
rhand -12.9213 11.6374
rfingers 7.12502
rthumb 13.1691 -17.9267
lclavicle -7.40473e-015 5.56597e-015
lhumerus -40.4743 -24.0625 95.4765
lradius 36.7926
lwrist -14.3911
lhand -38.9007 7.36784
lfingers 7.12502
lthumb -11.9079 37.0092
rfemur -14.9975 -20.4286 20.7898
rtibia 35.3504
rfoot -16.9835 1.82363
rtoes -7.31982
lfemur 17.2756 -3.82822 -2.11833
ltibia 36.6181
lfoot -6.91592 -16.9938
ltoes -23.6742
127
root 2.24079 16.6903 -18.4786 -7.32497 12.7838 -6.87465
lowerback 8.96172 -2.89142 4.18037
upperback 4.87343 -3.46192 3.38159
thorax 0.00983491 -1.68664 1.45859
lowerneck -11.7261 -6.03104 -10.5346
upperneck 32.4344 -4.04742 -5.88823
head 13.0565 -3.79344 -1.07766
rclavicle 3.05134e-014 -1.59028e-015
rhumerus -27.1765 -14.4049 -43.0109
rradius 126.327
rwrist 152.466
rhand -12.9415 11.9325
rfingers 7.12502
rthumb 13.1496 -17.6328
lclavicle 3.05134e-014 -1.59028e-015
lhumerus -41.166 -23.6504 95.8147
lradius 36.8406
lwrist -14.4198
lhand -38.3775 6.77446
lfingers 7.12502
lthumb -11.4034 36.4444
rfemur -14.3592 -21.0565 21.0981
rtibia 35.5077
rfoot -17.1101 2.22292
rtoes -6.57353
lfemur 15.3706 -3.23626 -1.58831
ltibia 40.9787
lfoot -4.83389 -16.3389
ltoes -19.3656
128
root 2.19216 16.6928 -18.2916 -7.38007 12.505 -7.02007
lowerback 8.76952 -2.72993 4.35821
upperback 4.98629 -3.2533 3.46257
thorax 0.229656 -1.57652 1.41173
lowerneck -11.8659 -5.89619 -10.1284
upperneck 33.8327 -3.75413 -6.15666
head 13.6653 -3.69998 -1.26878
rclavicle -1.31695e-014 1.43125e-014
rhumerus -26.6731 -18.7809 -43.2336
rradius 126.859
rwrist 149.311
rhand -12.7029 12.4363
rfingers 7.12502
rthumb 13.3795 -17.1141
lclavicle -1.31695e-014 1.43125e-014
lhumerus -41.537 -24.1602 96.0448
lradius 37.1463
lwrist -14.1553
lhand -37.99 6.74199
lfingers 7.12502
lthumb -11.0296 36.4322
rfemur -13.8032 -21.1813 21.4262
rtibia 35.7762
rfoot -17.6959 2.51297
rtoes -6.43062
lfemur 13.5027 -2.55929 -1.12278
ltibia 45.0701
lfoot -3.34572 -15.8931
ltoes -15.1757
129
root 2.15353 16.686 -18.1095 -7.57844 12.1586 -7.2033
lowerback 8.76157 -2.64086 4.61077
upperback 4.98147 -3.11547 3.64557
thorax 0.228697 -1.50489 1.44865
lowerneck -11.5274 -5.68671 -9.95726
upperneck 35.1033 -3.29919 -6.59561
head 14.1458 -3.578 -1.44957
rclavicle -1.88348e-014 -3.57812e-015
rhumerus -25.9922 -22.6607 -43.639
rradius 127.262
rwrist 146.402
rhand -12.8638 12.66
rfingers 7.12502
rthumb 13.2245 -16.9005
lclavicle -1.88348e-014 -3.57812e-015
lhumerus -42.1991 -24.3488 96.5559
lradius 37.4806
lwrist -13.8807
lhand -37.5654 6.61608
lfingers 7.12502
lthumb -10.6201 36.3277
rfemur -13.1519 -21.5828 21.7005
rtibia 36.1848
rfoot -18.3177 2.96476
rtoes -6.72376
lfemur 11.9267 -1.88507 -0.683253
ltibia 48.8839
lfoot -2.83328 -15.3014
ltoes -11.7505
130
root 2.11058 16.6842 -17.928 -7.75862 11.7621 -7.19882
lowerback 8.82511 -2.52846 4.55025
upperback 4.99751 -2.96595 3.84504
thorax 0.225731 -1.43413 1.67829
lowerneck -11.1473 -5.46638 -9.8072
upperneck 36.2713 -2.78828 -7.12964
head 14.5915 -3.44344 -1.65941
rclavicle 3.94588e-014 -5.88403e-014
rhumerus -24.8863 -25.3602 -44.5862
rradius 128.307
rwrist 148.052
rhand -11.6484 13.6344
rfingers 7.12502
rthumb 14.3958 -15.8464
lclavicle 3.94588e-014 -5.88403e-014
lhumerus -42.7898 -24.5284 97.0716
lradius 37.7775
lwrist -13.6211
lhand -37.1778 6.19841
lfingers 7.12502
lthumb -10.2462 35.9289
rfemur -12.4976 -21.4409 21.826
rtibia 36.6531
rfoot -18.8141 2.82318
rtoes -6.59996
lfemur 10.3785 -1.35137 -0.542865
ltibia 52.4623
lfoot -3.26262 -14.6934
ltoes -9.38538
131
root 2.0794 16.6686 -17.7492 -8.00221 11.2059 -7.22768
lowerback 8.76544 -2.38645 4.81109
upperback 5.15398 -2.77182 3.93115
thorax 0.41609 -1.32916 1.59955
lowerneck -10.8107 -5.28035 -9.62813
upperneck 37.3723 -2.32933 -7.63844
head 15.035 -3.32195 -1.87932
rclavicle -2.99668e-014 -1.31198e-014
rhumerus -23.5248 -28.1218 -45.7026
rradius 128.731
rwrist 147.762
rhand -11.2979 14.0504
rfingers 7.12502
rthumb 14.7335 -15.4059
lclavicle -2.99668e-014 -1.31198e-014
lhumerus -43.1903 -24.8665 97.4659
lradius 37.9994
lwrist -13.9371
lhand -36.9552 6.10387
lfingers 7.12502
lthumb -10.0314 35.8448
rfemur -11.8272 -21.4318 21.9043
rtibia 37.1464
rfoot -19.3929 3.15846
rtoes -6.4906
lfemur 9.04977 -0.663882 -0.38243
ltibia 55.8175
lfoot -4.88009 -14.23
ltoes -10.0434
132
root 2.0411 16.6515 -17.572 -8.18795 10.9157 -7.26049
lowerback 8.63921 -2.32443 4.86647
upperback 5.23939 -2.70032 4.13809
thorax 0.583609 -1.29237 1.77025
lowerneck -10.3167 -5.05684 -9.53214
upperneck 38.3645 -1.76425 -8.26866
head 15.4143 -3.17641 -2.11812
rclavicle 1.14301e-014 -3.18055e-014
rhumerus -21.947 -30.4998 -46.6385
rradius 128.611
rwrist 144.947
rhand -11.503 14.4196
rfingers 7.12502
rthumb 14.5359 -15.0512
lclavicle 1.14301e-014 -3.18055e-014
lhumerus -43.642 -25.2746 98.0396
lradius 38.1459
lwrist -13.6165
lhand -36.7384 5.76318
lfingers 7.12502
lthumb -9.8223 35.5141
rfemur -11.2101 -21.3738 22.0146
rtibia 37.6004
rfoot -20.0507 3.22866
rtoes -6.64295
lfemur 7.47497 -0.187041 -0.219606
ltibia 58.9968
lfoot -6.54135 -13.8506
ltoes -10.5204
133
root 2.00551 16.6296 -17.3927 -8.4283 10.5248 -7.47284
lowerback 8.36501 -2.20774 5.16103
upperback 5.46311 -2.56201 4.3566
thorax 0.968654 -1.21222 1.80709
lowerneck -9.97377 -4.93154 -9.53921
upperneck 39.3589 -1.33766 -8.75211
head 15.8543 -3.08628 -2.31467
rclavicle 0 -3.33958e-014
rhumerus -20.2516 -31.8568 -47.8406
rradius 128.85
rwrist 145.255
rhand -11.2702 14.7878
rfingers 7.12502
rthumb 14.7602 -14.6666
lclavicle 0 -3.33958e-014
lhumerus -43.9552 -26.0341 98.5809
lradius 38.3573
lwrist -13.3533
lhand -36.755 5.7153
lfingers 7.12502
lthumb -9.83832 35.4655
rfemur -10.4525 -21.2565 22.2655
rtibia 38.002
rfoot -20.8555 3.22189
rtoes -6.56208
lfemur 5.98007 0.419868 0.0976216
ltibia 61.9431
lfoot -8.04829 -13.687
ltoes -11.0609
134
root 1.97971 16.6025 -17.2208 -8.59253 10.1886 -7.71939
lowerback 7.96484 -2.12448 5.66587
upperback 5.68103 -2.47013 4.52835
thorax 1.40866 -1.14642 1.68005
lowerneck -9.44098 -4.79142 -9.19588
upperneck 40.0985 -0.894116 -9.575
head 16.1181 -2.96818 -2.70021
rclavicle -4.47266e-015 -1.59028e-015
rhumerus -18.6381 -32.3081 -49.1007
rradius 128.771
rwrist 145.061
rhand -10.7117 15.6802
rfingers 7.12502
rthumb 15.2982 -13.734
lclavicle -4.47266e-015 -1.59028e-015
lhumerus -44.1302 -26.6385 98.9685
lradius 38.4038
lwrist -13.3402
lhand -36.6726 5.49425
lfingers 7.12502
lthumb -9.75876 35.2481
rfemur -9.77485 -21.3506 22.4952
rtibia 38.3129
rfoot -21.6159 3.35646
rtoes -6.99794
lfemur 4.36068 1.13368 0.519333
ltibia 64.6517
lfoot -9.09152 -13.842
ltoes -11.2717
